<svg width="37" height="37" viewBox="0 0 37 37" fill="none" xmlns="http://www.w3.org/2000/svg">
<rect x="0.200195" y="0.5" width="36" height="36" rx="18" fill="#F1F1F1"/>
<path d="M18.2 13.1667H14.8667C13.7621 13.1667 12.8667 14.0621 12.8667 15.1667V21.8334C12.8667 22.9379 13.7621 23.8334 14.8667 23.8334H21.5334C22.6379 23.8334 23.5334 22.9379 23.5334 21.8334V18.5M22.4762 16.1095L23.2 15.3857C23.7207 14.865 23.7207 14.0207 23.2 13.5C22.6793 12.9793 21.8351 12.9793 21.3144 13.5L20.5906 14.2239M22.4762 16.1095L18.452 20.1337C18.2659 20.3199 18.0288 20.4467 17.7707 20.4984L15.8095 20.8906L16.2017 18.9294C16.2534 18.6713 16.3802 18.4342 16.5664 18.2481L20.5906 14.2239M22.4762 16.1095L20.5906 14.2239" stroke="#202224" stroke-width="1.5" stroke-linecap="round" stroke-linejoin="round"/>
</svg>
